PathFileType	4	(X/Y/Z)	C:\Users\WrightLab\Desktop\Jo\P2_Trial10.trc
DataRate	CameraRate	NumFrames	NumMarkers	Units	OrigDataRate	OrigDataStartFrame	OrigNumFrames
100.00	100.00	       104	19	mm	100.00	1	       837
Frame#	Time	Headset_Front			Headset_Back			Headset_Left			Headset_Right			Left_Shoulder			Right_Shoulder			Sternum			C7			Left Elbow			Right Elbow			Left Wrist			Right Wrist			Left ASIS			Right ASIS			S2			Left Knee			Right Knee			Left Ankle			Right Ankle			
		X1	Y1	Z1	X2	Y2	Z2	X3	Y3	Z3	X4	Y4	Z4	X5	Y5	Z5	X6	Y6	Z6	X7	Y7	Z7	X8	Y8	Z8	X9	Y9	Z9	X10	Y10	Z10	X11	Y11	Z11	X12	Y12	Z12	X13	Y13	Z13	X14	Y14	Z14	X15	Y15	Z15	X16	Y16	Z16	X17	Y17	Z17	X18	Y18	Z18	X19	Y19	Z19	

1	0.000																																																										
2	0.010																																																										
3	0.020																																																										
4	0.030																																																										
5	0.040																																																										
6	0.050																																																										
7	0.060																																																										
8	0.070																																																										
9	0.080																																																										
10	0.090																																																										
11	0.100																																																										
12	0.110																																																										
13	0.120																																																										
14	0.130																																																										
15	0.140																																																										
16	0.150																																																										
17	0.160																																																										
18	0.170																																																										
19	0.180																																																										
20	0.190																																																										
21	0.200																																																										
22	0.210																																																										
23	0.220																																																										
24	0.230																																																										
25	0.240																																																										
26	0.250																																																										
27	0.260																																																										
28	0.270																																																										
29	0.280																																																										
30	0.290																																																										
31	0.300																																																										
32	0.310																																																										
33	0.320																																																										
34	0.330																																																										
35	0.340																																																										
36	0.350																																																										
37	0.360																																																										
38	0.370																																																										
39	0.380																																																										
40	0.390																																																										
41	0.400																																																										
42	0.410																																																										
43	0.420																																																										
44	0.430																																																										
45	0.440																																																										
46	0.450																																																										
47	0.460																																																										
48	0.470																																														-99.18421	416.42624	-1671.54065										
49	0.480																																														-98.20544	416.05807	-1674.13818										
50	0.490																																														-98.19968	415.68018	-1674.99475										
51	0.500																																														-97.86451	415.93100	-1677.42175										
52	0.510																																														-98.67406	415.61887	-1677.46594										
53	0.520																																														-97.86471	416.37051	-1678.55847										
54	0.530																																														-98.29597	416.04187	-1679.23633										
55	0.540																																														-98.53678	415.72659	-1679.69006										
56	0.550																																														-98.74357	415.70743	-1679.53809										
57	0.560																																														-98.86063	415.79169	-1679.33899										
58	0.570																																														-98.94706	416.04971	-1678.66284										
59	0.580																																														-99.18372	416.05011	-1678.88037										
60	0.590																																														-99.56219	416.68979	-1679.23950										
61	0.600																																														-100.22676	416.96445	-1679.25806										
62	0.610																																														-100.93401	417.49362	-1679.73853										
63	0.620																																														-101.94805	417.31052	-1679.41260										
64	0.630																																														-102.38961	417.28625	-1680.13330										
65	0.640																																														-102.62067	417.20734	-1680.62463										
66	0.650																																														-102.84660	416.89789	-1681.47314										
67	0.660																																														-102.90045	416.63611	-1682.24341										
68	0.670																																														-103.11088	416.69751	-1682.38904										
69	0.680																																														-103.25449	416.55771	-1682.87061										
70	0.690																																														-103.87127	416.30249	-1682.74951										
71	0.700																																														-104.45961	416.43918	-1682.42236										
72	0.710																																														-105.32082	416.43024	-1681.98926										
73	0.720																																														-106.06028	416.09052	-1681.19836										
74	0.730																																														-106.48457	416.90341	-1680.90784										
75	0.740																																														-107.49588	416.44644	-1679.57886										
76	0.750																																														-107.64500	416.44046	-1679.48560										
77	0.760																																														-108.28957	416.38788	-1678.10657										
78	0.770																																														-109.62016	416.20450	-1675.84424										
79	0.780																																														-109.65843	416.49957	-1675.00940										
80	0.790																																														-109.79888	416.99780	-1673.72583										
81	0.800																																														-109.66638	417.31018	-1672.43298										
82	0.810																																														-110.17924	417.96933	-1669.81775										
83	0.820																																														-109.97753	417.57764	-1668.72498										
84	0.830																																														-110.01986	417.40933	-1666.47925										
85	0.840																																														-109.72742	417.85431	-1664.89050										
86	0.850																																														-108.95010	418.29166	-1663.12952										
87	0.860																																														-109.34550	417.75000	-1661.30591										
88	0.870																																														-108.80665	417.68787	-1658.98755										
89	0.880																																														-108.47725	417.94519	-1657.84521										
90	0.890																																														-109.04322	417.93192	-1655.08032										
91	0.900																																														-108.48113	418.25925	-1653.38647										
92	0.910																																														-108.34335	418.88480	-1651.73096										
93	0.920																																														-108.14542	418.49075	-1648.76465										
94	0.930																																														-108.29812	417.88443	-1646.87317										
95	0.940																																														-107.71725	418.35373	-1644.82813										
96	0.950																																														-107.44057	417.89078	-1643.38696										
97	0.960																																														-107.58752	417.86411	-1640.43921										
98	0.970																																														-107.31097	418.26733	-1639.05823										
99	0.980																																														-107.02074	418.66339	-1637.67065										
100	0.990																																														-107.42815	419.05176	-1635.35437										
101	1.000																																														-107.34610	418.84161	-1634.09961										
102	1.010																																														-107.73341	418.58026	-1631.75757										
103	1.020																																														-107.72780	419.19879	-1630.34399										
104	1.030																																														-107.50771	419.36288	-1629.60205										
